<?xml version="1.0" standalone="no"?>
<!DOCTYPE svg PUBLIC "-//W3C//DTD SVG 20010904//EN"
 "http://www.w3.org/TR/2001/REC-SVG-20010904/DTD/svg10.dtd">
<svg version="1.0" xmlns="http://www.w3.org/2000/svg"
 width="336.000000pt" height="336.000000pt" viewBox="0 0 336.000000 336.000000"
 preserveAspectRatio="xMidYMid meet">
<metadata>
Created by potrace 1.11, written by Peter Selinger 2001-2013
</metadata>
<g transform="translate(0.000000,336.000000) scale(0.100000,-0.100000)"
fill="#000000" stroke="none">
<path d="M0 2792 l0 -239 228 1 c125 1 234 0 243 -2 14 -3 16 -89 15 -870 0
-477 -3 -869 -7 -872 -4 -3 -113 -5 -243 -4 l-236 1 0 -239 0 -238 1115 0
1115 0 0 715 0 715 -237 -2 -238 -3 0 -470 c0 -364 -2 -471 -12 -475 -7 -3
-185 -5 -395 -4 l-383 0 -1 872 c-1 791 1 872 15 873 9 0 151 1 316 2 l300 2
0 238 1 237 -798 0 -798 0 0 -238z"/>
<path d="M1760 2792 l0 -238 303 1 c166 0 309 -1 317 -3 13 -3 16 -19 15 -80
l0 -77 -630 -1 c-347 -1 -632 -2 -635 -3 -3 0 -5 -320 -6 -710 0 -706 0 -710
21 -713 11 -2 117 -3 235 -3 l215 0 3 477 2 477 398 -2 397 -2 0 -790 0 -790
483 -3 482 -2 0 238 0 238 -227 -1 c-126 0 -235 1 -244 3 -15 3 -17 76 -17
872 0 638 3 870 12 872 6 2 116 3 244 3 l232 -1 0 238 0 238 -800 0 -800 0 0
-238z"/>
</g>
</svg>
